<mxfile host="Electron" modified="2024-05-08T11:44:53.651Z" agent="Mozilla/5.0 (Windows NT 10.0; Win64; x64) AppleWebKit/537.36 (KHTML, like Gecko) draw.io/21.6.8 Chrome/114.0.5735.289 Electron/25.5.0 Safari/537.36" etag="U8cysgRjH_48Kg824A_X" version="21.6.8" type="device">
  <diagram name="Page-1" id="bTZcT1Api_6f6nJbqBNm">
    <mxGraphModel dx="1562" dy="909" grid="1" gridSize="10" guides="1" tooltips="1" connect="1" arrows="1" fold="1" page="1" pageScale="1" pageWidth="827" pageHeight="1169" math="0" shadow="0">
      <root>
        <mxCell id="0" />
        <mxCell id="1" parent="0" />
        <mxCell id="s4bk7PMrDm6jOuG2M9_s-1" value="AciesOne" style="swimlane;html=1;childLayout=stackLayout;resizeParent=1;resizeParentMax=0;horizontal=0;startSize=20;horizontalStack=0;whiteSpace=wrap;" vertex="1" parent="1">
          <mxGeometry width="820" height="190" as="geometry" />
        </mxCell>
        <mxCell id="s4bk7PMrDm6jOuG2M9_s-2" value="JobAgent" style="swimlane;html=1;startSize=20;horizontal=0;" vertex="1" parent="s4bk7PMrDm6jOuG2M9_s-1">
          <mxGeometry x="20" width="800" height="190" as="geometry" />
        </mxCell>
        <mxCell id="s4bk7PMrDm6jOuG2M9_s-10" value="Query database table" style="points=[[0.25,0,0],[0.5,0,0],[0.75,0,0],[1,0.25,0],[1,0.5,0],[1,0.75,0],[0.75,1,0],[0.5,1,0],[0.25,1,0],[0,0.75,0],[0,0.5,0],[0,0.25,0]];shape=mxgraph.bpmn.task;whiteSpace=wrap;rectStyle=rounded;size=10;html=1;container=1;expand=0;collapsible=0;taskMarker=abstract;" vertex="1" parent="s4bk7PMrDm6jOuG2M9_s-2">
          <mxGeometry x="240" y="82" width="120" height="80" as="geometry" />
        </mxCell>
        <mxCell id="s4bk7PMrDm6jOuG2M9_s-11" value="On-premise" style="shape=datastore;html=1;labelPosition=center;verticalLabelPosition=bottom;align=center;verticalAlign=top;" vertex="1" parent="s4bk7PMrDm6jOuG2M9_s-2">
          <mxGeometry x="160" y="12" width="40" height="40" as="geometry" />
        </mxCell>
        <mxCell id="s4bk7PMrDm6jOuG2M9_s-12" value="" style="fontSize=12;html=1;endFill=0;startFill=0;endSize=6;startSize=6;dashed=1;dashPattern=1 4;endArrow=open;startArrow=none;rounded=0;" edge="1" parent="s4bk7PMrDm6jOuG2M9_s-2" source="s4bk7PMrDm6jOuG2M9_s-11" target="s4bk7PMrDm6jOuG2M9_s-10">
          <mxGeometry width="160" relative="1" as="geometry">
            <mxPoint x="570" y="352" as="sourcePoint" />
            <mxPoint x="730" y="352" as="targetPoint" />
          </mxGeometry>
        </mxCell>
        <mxCell id="s4bk7PMrDm6jOuG2M9_s-13" value="" style="edgeStyle=elbowEdgeStyle;fontSize=12;html=1;endArrow=blockThin;endFill=1;rounded=0;" edge="1" parent="s4bk7PMrDm6jOuG2M9_s-2" source="s4bk7PMrDm6jOuG2M9_s-100" target="s4bk7PMrDm6jOuG2M9_s-10">
          <mxGeometry width="160" relative="1" as="geometry">
            <mxPoint x="220" y="122" as="sourcePoint" />
            <mxPoint x="730" y="382" as="targetPoint" />
          </mxGeometry>
        </mxCell>
        <mxCell id="s4bk7PMrDm6jOuG2M9_s-17" value="Compress data" style="points=[[0.25,0,0],[0.5,0,0],[0.75,0,0],[1,0.25,0],[1,0.5,0],[1,0.75,0],[0.75,1,0],[0.5,1,0],[0.25,1,0],[0,0.75,0],[0,0.5,0],[0,0.25,0]];shape=mxgraph.bpmn.task;whiteSpace=wrap;rectStyle=rounded;size=10;html=1;container=1;expand=0;collapsible=0;taskMarker=abstract;" vertex="1" parent="s4bk7PMrDm6jOuG2M9_s-2">
          <mxGeometry x="380" y="82" width="120" height="80" as="geometry" />
        </mxCell>
        <mxCell id="s4bk7PMrDm6jOuG2M9_s-18" value="" style="edgeStyle=elbowEdgeStyle;fontSize=12;html=1;endArrow=blockThin;endFill=1;rounded=0;" edge="1" parent="s4bk7PMrDm6jOuG2M9_s-2" target="s4bk7PMrDm6jOuG2M9_s-17" source="s4bk7PMrDm6jOuG2M9_s-10">
          <mxGeometry width="160" relative="1" as="geometry">
            <mxPoint x="360" y="122" as="sourcePoint" />
            <mxPoint x="880" y="382" as="targetPoint" />
          </mxGeometry>
        </mxCell>
        <mxCell id="s4bk7PMrDm6jOuG2M9_s-20" value="" style="edgeStyle=elbowEdgeStyle;fontSize=12;html=1;endArrow=blockThin;endFill=1;rounded=0;" edge="1" parent="s4bk7PMrDm6jOuG2M9_s-2" target="s4bk7PMrDm6jOuG2M9_s-26" source="s4bk7PMrDm6jOuG2M9_s-17">
          <mxGeometry width="160" relative="1" as="geometry">
            <mxPoint x="510" y="122" as="sourcePoint" />
            <mxPoint x="540" y="122" as="targetPoint" />
          </mxGeometry>
        </mxCell>
        <mxCell id="s4bk7PMrDm6jOuG2M9_s-23" value="" style="points=[[0.145,0.145,0],[0.5,0,0],[0.855,0.145,0],[1,0.5,0],[0.855,0.855,0],[0.5,1,0],[0.145,0.855,0],[0,0.5,0]];shape=mxgraph.bpmn.event;html=1;verticalLabelPosition=bottom;labelBackgroundColor=#ffffff;verticalAlign=top;align=center;perimeter=ellipsePerimeter;outlineConnect=0;aspect=fixed;outline=end;symbol=terminate2;" vertex="1" parent="s4bk7PMrDm6jOuG2M9_s-2">
          <mxGeometry x="660" y="97" width="50" height="50" as="geometry" />
        </mxCell>
        <mxCell id="s4bk7PMrDm6jOuG2M9_s-24" value="" style="edgeStyle=elbowEdgeStyle;fontSize=12;html=1;endArrow=blockThin;endFill=1;rounded=0;" edge="1" parent="s4bk7PMrDm6jOuG2M9_s-2" source="s4bk7PMrDm6jOuG2M9_s-26" target="s4bk7PMrDm6jOuG2M9_s-23">
          <mxGeometry width="160" relative="1" as="geometry">
            <mxPoint x="660" y="122" as="sourcePoint" />
            <mxPoint x="550" y="132" as="targetPoint" />
          </mxGeometry>
        </mxCell>
        <mxCell id="s4bk7PMrDm6jOuG2M9_s-26" value="Send to S3" style="points=[[0.25,0,0],[0.5,0,0],[0.75,0,0],[1,0.25,0],[1,0.5,0],[1,0.75,0],[0.75,1,0],[0.5,1,0],[0.25,1,0],[0,0.75,0],[0,0.5,0],[0,0.25,0]];shape=mxgraph.bpmn.task;whiteSpace=wrap;rectStyle=rounded;size=10;html=1;container=1;expand=0;collapsible=0;taskMarker=send;" vertex="1" parent="s4bk7PMrDm6jOuG2M9_s-2">
          <mxGeometry x="520" y="82" width="120" height="80" as="geometry" />
        </mxCell>
        <mxCell id="s4bk7PMrDm6jOuG2M9_s-28" value="" style="edgeStyle=elbowEdgeStyle;fontSize=12;html=1;endArrow=blockThin;endFill=1;rounded=0;" edge="1" parent="s4bk7PMrDm6jOuG2M9_s-2" source="s4bk7PMrDm6jOuG2M9_s-99" target="s4bk7PMrDm6jOuG2M9_s-100">
          <mxGeometry width="160" relative="1" as="geometry">
            <mxPoint x="80" y="122" as="sourcePoint" />
            <mxPoint x="100" y="122" as="targetPoint" />
          </mxGeometry>
        </mxCell>
        <mxCell id="s4bk7PMrDm6jOuG2M9_s-99" value="" style="points=[[0.145,0.145,0],[0.5,0,0],[0.855,0.145,0],[1,0.5,0],[0.855,0.855,0],[0.5,1,0],[0.145,0.855,0],[0,0.5,0]];shape=mxgraph.bpmn.event;html=1;verticalLabelPosition=bottom;labelBackgroundColor=#ffffff;verticalAlign=top;align=center;perimeter=ellipsePerimeter;outlineConnect=0;aspect=fixed;outline=standard;symbol=message;" vertex="1" parent="s4bk7PMrDm6jOuG2M9_s-2">
          <mxGeometry x="30" y="97" width="50" height="50" as="geometry" />
        </mxCell>
        <mxCell id="s4bk7PMrDm6jOuG2M9_s-100" value="Receive data query request" style="points=[[0.25,0,0],[0.5,0,0],[0.75,0,0],[1,0.25,0],[1,0.5,0],[1,0.75,0],[0.75,1,0],[0.5,1,0],[0.25,1,0],[0,0.75,0],[0,0.5,0],[0,0.25,0]];shape=mxgraph.bpmn.task;whiteSpace=wrap;rectStyle=rounded;size=10;html=1;container=1;expand=0;collapsible=0;taskMarker=abstract;" vertex="1" parent="s4bk7PMrDm6jOuG2M9_s-2">
          <mxGeometry x="100" y="82" width="120" height="80" as="geometry" />
        </mxCell>
        <mxCell id="s4bk7PMrDm6jOuG2M9_s-5" value="AciesCore" style="swimlane;html=1;childLayout=stackLayout;resizeParent=1;resizeParentMax=0;horizontal=0;startSize=20;horizontalStack=0;whiteSpace=wrap;" vertex="1" parent="1">
          <mxGeometry y="210" width="820" height="950" as="geometry" />
        </mxCell>
        <mxCell id="s4bk7PMrDm6jOuG2M9_s-6" value="One service" style="swimlane;html=1;startSize=20;horizontal=0;" vertex="1" parent="s4bk7PMrDm6jOuG2M9_s-5">
          <mxGeometry x="20" width="800" height="600" as="geometry" />
        </mxCell>
        <mxCell id="s4bk7PMrDm6jOuG2M9_s-14" value="" style="points=[[0.145,0.145,0],[0.5,0,0],[0.855,0.145,0],[1,0.5,0],[0.855,0.855,0],[0.5,1,0],[0.145,0.855,0],[0,0.5,0]];shape=mxgraph.bpmn.event;html=1;verticalLabelPosition=bottom;labelBackgroundColor=#ffffff;verticalAlign=top;align=center;perimeter=ellipsePerimeter;outlineConnect=0;aspect=fixed;outline=standard;symbol=general;" vertex="1" parent="s4bk7PMrDm6jOuG2M9_s-6">
          <mxGeometry x="30" y="49" width="50" height="50" as="geometry" />
        </mxCell>
        <mxCell id="s4bk7PMrDm6jOuG2M9_s-16" value="" style="edgeStyle=elbowEdgeStyle;fontSize=12;html=1;endArrow=blockThin;endFill=1;rounded=0;" edge="1" parent="s4bk7PMrDm6jOuG2M9_s-6" target="s4bk7PMrDm6jOuG2M9_s-90" source="s4bk7PMrDm6jOuG2M9_s-14">
          <mxGeometry width="160" relative="1" as="geometry">
            <mxPoint x="80" y="74" as="sourcePoint" />
            <mxPoint x="100" y="74" as="targetPoint" />
          </mxGeometry>
        </mxCell>
        <mxCell id="s4bk7PMrDm6jOuG2M9_s-66" value="" style="points=[[0.145,0.145,0],[0.5,0,0],[0.855,0.145,0],[1,0.5,0],[0.855,0.855,0],[0.5,1,0],[0.145,0.855,0],[0,0.5,0]];shape=mxgraph.bpmn.event;html=1;verticalLabelPosition=bottom;labelBackgroundColor=#ffffff;verticalAlign=top;align=center;perimeter=ellipsePerimeter;outlineConnect=0;aspect=fixed;outline=standard;symbol=message;" vertex="1" parent="s4bk7PMrDm6jOuG2M9_s-6">
          <mxGeometry x="450" y="49" width="50" height="50" as="geometry" />
        </mxCell>
        <mxCell id="s4bk7PMrDm6jOuG2M9_s-67" value="Uncompress data" style="points=[[0.25,0,0],[0.5,0,0],[0.75,0,0],[1,0.25,0],[1,0.5,0],[1,0.75,0],[0.75,1,0],[0.5,1,0],[0.25,1,0],[0,0.75,0],[0,0.5,0],[0,0.25,0]];shape=mxgraph.bpmn.task;whiteSpace=wrap;rectStyle=rounded;size=10;html=1;container=1;expand=0;collapsible=0;taskMarker=abstract;" vertex="1" parent="s4bk7PMrDm6jOuG2M9_s-6">
          <mxGeometry x="657" y="34" width="120" height="80" as="geometry" />
        </mxCell>
        <mxCell id="s4bk7PMrDm6jOuG2M9_s-68" value="" style="edgeStyle=elbowEdgeStyle;fontSize=12;html=1;endArrow=blockThin;endFill=1;rounded=0;" edge="1" parent="s4bk7PMrDm6jOuG2M9_s-6" source="s4bk7PMrDm6jOuG2M9_s-70" target="s4bk7PMrDm6jOuG2M9_s-67">
          <mxGeometry width="160" relative="1" as="geometry">
            <mxPoint x="90" y="84" as="sourcePoint" />
            <mxPoint x="110" y="84" as="targetPoint" />
          </mxGeometry>
        </mxCell>
        <mxCell id="s4bk7PMrDm6jOuG2M9_s-70" value="Receive data" style="points=[[0.25,0,0],[0.5,0,0],[0.75,0,0],[1,0.25,0],[1,0.5,0],[1,0.75,0],[0.75,1,0],[0.5,1,0],[0.25,1,0],[0,0.75,0],[0,0.5,0],[0,0.25,0]];shape=mxgraph.bpmn.task;whiteSpace=wrap;rectStyle=rounded;size=10;html=1;container=1;expand=0;collapsible=0;taskMarker=abstract;" vertex="1" parent="s4bk7PMrDm6jOuG2M9_s-6">
          <mxGeometry x="520" y="34" width="120" height="80" as="geometry" />
        </mxCell>
        <mxCell id="s4bk7PMrDm6jOuG2M9_s-71" value="" style="edgeStyle=elbowEdgeStyle;fontSize=12;html=1;endArrow=blockThin;endFill=1;rounded=0;" edge="1" parent="s4bk7PMrDm6jOuG2M9_s-6" source="s4bk7PMrDm6jOuG2M9_s-66" target="s4bk7PMrDm6jOuG2M9_s-70">
          <mxGeometry width="160" relative="1" as="geometry">
            <mxPoint x="100" y="485" as="sourcePoint" />
            <mxPoint x="550" y="485" as="targetPoint" />
          </mxGeometry>
        </mxCell>
        <mxCell id="s4bk7PMrDm6jOuG2M9_s-74" value="" style="edgeStyle=elbowEdgeStyle;fontSize=12;html=1;endArrow=blockThin;endFill=1;rounded=0;" edge="1" parent="s4bk7PMrDm6jOuG2M9_s-6" target="s4bk7PMrDm6jOuG2M9_s-91">
          <mxGeometry width="160" relative="1" as="geometry">
            <mxPoint x="220" y="74" as="sourcePoint" />
            <mxPoint x="240" y="74" as="targetPoint" />
          </mxGeometry>
        </mxCell>
        <mxCell id="s4bk7PMrDm6jOuG2M9_s-79" value="" style="points=[[0.145,0.145,0],[0.5,0,0],[0.855,0.145,0],[1,0.5,0],[0.855,0.855,0],[0.5,1,0],[0.145,0.855,0],[0,0.5,0]];shape=mxgraph.bpmn.event;html=1;verticalLabelPosition=bottom;labelBackgroundColor=#ffffff;verticalAlign=top;align=center;perimeter=ellipsePerimeter;outlineConnect=0;aspect=fixed;outline=end;symbol=terminate2;" vertex="1" parent="s4bk7PMrDm6jOuG2M9_s-6">
          <mxGeometry x="692" y="230" width="50" height="50" as="geometry" />
        </mxCell>
        <mxCell id="s4bk7PMrDm6jOuG2M9_s-81" value="" style="points=[[0.145,0.145,0],[0.5,0,0],[0.855,0.145,0],[1,0.5,0],[0.855,0.855,0],[0.5,1,0],[0.145,0.855,0],[0,0.5,0]];shape=mxgraph.bpmn.event;html=1;verticalLabelPosition=bottom;labelBackgroundColor=#ffffff;verticalAlign=top;align=center;perimeter=ellipsePerimeter;outlineConnect=0;aspect=fixed;outline=standard;symbol=message;" vertex="1" parent="s4bk7PMrDm6jOuG2M9_s-6">
          <mxGeometry x="50" y="290" width="50" height="50" as="geometry" />
        </mxCell>
        <mxCell id="s4bk7PMrDm6jOuG2M9_s-82" value="Receive master data item" style="points=[[0.25,0,0],[0.5,0,0],[0.75,0,0],[1,0.25,0],[1,0.5,0],[1,0.75,0],[0.75,1,0],[0.5,1,0],[0.25,1,0],[0,0.75,0],[0,0.5,0],[0,0.25,0]];shape=mxgraph.bpmn.task;whiteSpace=wrap;rectStyle=rounded;size=10;html=1;container=1;expand=0;collapsible=0;taskMarker=abstract;" vertex="1" parent="s4bk7PMrDm6jOuG2M9_s-6">
          <mxGeometry x="120" y="275" width="120" height="80" as="geometry" />
        </mxCell>
        <mxCell id="s4bk7PMrDm6jOuG2M9_s-83" value="" style="edgeStyle=elbowEdgeStyle;fontSize=12;html=1;endArrow=blockThin;endFill=1;rounded=0;" edge="1" parent="s4bk7PMrDm6jOuG2M9_s-6" target="s4bk7PMrDm6jOuG2M9_s-82" source="s4bk7PMrDm6jOuG2M9_s-81">
          <mxGeometry width="160" relative="1" as="geometry">
            <mxPoint x="-310" y="395" as="sourcePoint" />
            <mxPoint x="160" y="685" as="targetPoint" />
          </mxGeometry>
        </mxCell>
        <mxCell id="s4bk7PMrDm6jOuG2M9_s-86" value="Send master data items to processing queue" style="points=[[0.25,0,0],[0.5,0,0],[0.75,0,0],[1,0.25,0],[1,0.5,0],[1,0.75,0],[0.75,1,0],[0.5,1,0],[0.25,1,0],[0,0.75,0],[0,0.5,0],[0,0.25,0]];shape=mxgraph.bpmn.task;whiteSpace=wrap;rectStyle=rounded;size=10;html=1;container=1;expand=0;collapsible=0;taskMarker=abstract;isLoopSub=1;isLoopMultiParallel=1;" vertex="1" parent="s4bk7PMrDm6jOuG2M9_s-6">
          <mxGeometry x="657" y="130" width="120" height="80" as="geometry" />
        </mxCell>
        <mxCell id="s4bk7PMrDm6jOuG2M9_s-78" value="" style="edgeStyle=elbowEdgeStyle;fontSize=12;html=1;endArrow=blockThin;endFill=1;rounded=0;" edge="1" parent="s4bk7PMrDm6jOuG2M9_s-6" source="s4bk7PMrDm6jOuG2M9_s-67" target="s4bk7PMrDm6jOuG2M9_s-86">
          <mxGeometry width="160" relative="1" as="geometry">
            <mxPoint x="90" y="84" as="sourcePoint" />
            <mxPoint x="440" y="195" as="targetPoint" />
          </mxGeometry>
        </mxCell>
        <mxCell id="s4bk7PMrDm6jOuG2M9_s-80" value="" style="edgeStyle=elbowEdgeStyle;fontSize=12;html=1;endArrow=blockThin;endFill=1;rounded=0;" edge="1" parent="s4bk7PMrDm6jOuG2M9_s-6" source="s4bk7PMrDm6jOuG2M9_s-86" target="s4bk7PMrDm6jOuG2M9_s-79">
          <mxGeometry width="160" relative="1" as="geometry">
            <mxPoint x="560" y="195" as="sourcePoint" />
            <mxPoint x="450" y="205" as="targetPoint" />
          </mxGeometry>
        </mxCell>
        <mxCell id="s4bk7PMrDm6jOuG2M9_s-90" value="Request data for all tables in all environments" style="points=[[0.25,0,0],[0.5,0,0],[0.75,0,0],[1,0.25,0],[1,0.5,0],[1,0.75,0],[0.75,1,0],[0.5,1,0],[0.25,1,0],[0,0.75,0],[0,0.5,0],[0,0.25,0]];shape=mxgraph.bpmn.task;whiteSpace=wrap;rectStyle=rounded;size=10;html=1;container=1;expand=0;collapsible=0;taskMarker=abstract;isLoopStandard=1;isLoopSub=1;" vertex="1" parent="s4bk7PMrDm6jOuG2M9_s-6">
          <mxGeometry x="100" y="34" width="120" height="80" as="geometry" />
        </mxCell>
        <mxCell id="s4bk7PMrDm6jOuG2M9_s-91" value="" style="points=[[0.145,0.145,0],[0.5,0,0],[0.855,0.145,0],[1,0.5,0],[0.855,0.855,0],[0.5,1,0],[0.145,0.855,0],[0,0.5,0]];shape=mxgraph.bpmn.event;html=1;verticalLabelPosition=bottom;labelBackgroundColor=#ffffff;verticalAlign=top;align=center;perimeter=ellipsePerimeter;outlineConnect=0;aspect=fixed;outline=end;symbol=terminate2;" vertex="1" parent="s4bk7PMrDm6jOuG2M9_s-6">
          <mxGeometry x="240" y="49" width="50" height="50" as="geometry" />
        </mxCell>
        <mxCell id="s4bk7PMrDm6jOuG2M9_s-93" value="Use SQS queue with postponed visiblity for loop handling" style="shape=note2;boundedLbl=1;whiteSpace=wrap;html=1;size=10;verticalAlign=middle;align=left;fontSize=10;spacing=2;horizontal=1;labelPosition=center;verticalLabelPosition=middle;" vertex="1" parent="s4bk7PMrDm6jOuG2M9_s-6">
          <mxGeometry x="254" y="120" width="140" height="50" as="geometry" />
        </mxCell>
        <mxCell id="s4bk7PMrDm6jOuG2M9_s-94" value="" style="endArrow=none;dashed=1;html=1;rounded=0;" edge="1" parent="s4bk7PMrDm6jOuG2M9_s-6" source="s4bk7PMrDm6jOuG2M9_s-90" target="s4bk7PMrDm6jOuG2M9_s-93">
          <mxGeometry width="50" height="50" relative="1" as="geometry">
            <mxPoint x="500" y="110" as="sourcePoint" />
            <mxPoint x="550" y="60" as="targetPoint" />
          </mxGeometry>
        </mxCell>
        <mxCell id="s4bk7PMrDm6jOuG2M9_s-98" value="" style="sketch=0;points=[[0,0,0],[0.25,0,0],[0.5,0,0],[0.75,0,0],[1,0,0],[0,1,0],[0.25,1,0],[0.5,1,0],[0.75,1,0],[1,1,0],[0,0.25,0],[0,0.5,0],[0,0.75,0],[1,0.25,0],[1,0.5,0],[1,0.75,0]];outlineConnect=0;fontColor=#232F3E;gradientColor=#FF4F8B;gradientDirection=north;fillColor=#BC1356;strokeColor=#ffffff;dashed=0;verticalLabelPosition=bottom;verticalAlign=top;align=center;html=1;fontSize=12;fontStyle=0;aspect=fixed;shape=mxgraph.aws4.resourceIcon;resIcon=mxgraph.aws4.sqs;" vertex="1" parent="s4bk7PMrDm6jOuG2M9_s-6">
          <mxGeometry x="260" y="200" width="40" height="40" as="geometry" />
        </mxCell>
        <mxCell id="s4bk7PMrDm6jOuG2M9_s-88" value="" style="fontSize=12;html=1;endFill=0;startFill=0;endSize=6;startSize=6;dashed=1;dashPattern=1 4;endArrow=open;startArrow=none;rounded=0;elbow=vertical;" edge="1" parent="s4bk7PMrDm6jOuG2M9_s-6" source="s4bk7PMrDm6jOuG2M9_s-86" target="s4bk7PMrDm6jOuG2M9_s-98">
          <mxGeometry width="160" relative="1" as="geometry">
            <mxPoint x="780" y="625" as="sourcePoint" />
            <mxPoint x="829.3023255813955" y="140" as="targetPoint" />
          </mxGeometry>
        </mxCell>
        <mxCell id="s4bk7PMrDm6jOuG2M9_s-89" value="" style="fontSize=12;html=1;endFill=0;startFill=0;endSize=6;startSize=6;dashed=1;dashPattern=1 4;endArrow=open;startArrow=none;rounded=0;elbow=vertical;" edge="1" parent="s4bk7PMrDm6jOuG2M9_s-6" source="s4bk7PMrDm6jOuG2M9_s-98" target="s4bk7PMrDm6jOuG2M9_s-82">
          <mxGeometry width="160" relative="1" as="geometry">
            <mxPoint x="160" y="260" as="sourcePoint" />
            <mxPoint x="53" y="645" as="targetPoint" />
          </mxGeometry>
        </mxCell>
        <mxCell id="s4bk7PMrDm6jOuG2M9_s-101" value="Update rowversion" style="points=[[0.25,0,0],[0.5,0,0],[0.75,0,0],[1,0.25,0],[1,0.5,0],[1,0.75,0],[0.75,1,0],[0.5,1,0],[0.25,1,0],[0,0.75,0],[0,0.5,0],[0,0.25,0]];shape=mxgraph.bpmn.task;whiteSpace=wrap;rectStyle=rounded;size=10;html=1;container=1;expand=0;collapsible=0;taskMarker=abstract;" vertex="1" parent="s4bk7PMrDm6jOuG2M9_s-6">
          <mxGeometry x="260" y="275" width="120" height="80" as="geometry" />
        </mxCell>
        <mxCell id="s4bk7PMrDm6jOuG2M9_s-102" value="" style="edgeStyle=elbowEdgeStyle;fontSize=12;html=1;endArrow=blockThin;endFill=1;rounded=0;" edge="1" parent="s4bk7PMrDm6jOuG2M9_s-6" source="s4bk7PMrDm6jOuG2M9_s-82" target="s4bk7PMrDm6jOuG2M9_s-101">
          <mxGeometry width="160" relative="1" as="geometry">
            <mxPoint x="-310" y="395" as="sourcePoint" />
            <mxPoint x="160" y="685" as="targetPoint" />
          </mxGeometry>
        </mxCell>
        <mxCell id="s4bk7PMrDm6jOuG2M9_s-103" value="Receive master data item" style="points=[[0.25,0,0],[0.5,0,0],[0.75,0,0],[1,0.25,0],[1,0.5,0],[1,0.75,0],[0.75,1,0],[0.5,1,0],[0.25,1,0],[0,0.75,0],[0,0.5,0],[0,0.25,0]];shape=mxgraph.bpmn.task;whiteSpace=wrap;rectStyle=rounded;size=10;html=1;container=1;expand=0;collapsible=0;taskMarker=abstract;" vertex="1" parent="s4bk7PMrDm6jOuG2M9_s-6">
          <mxGeometry x="120" y="375" width="120" height="80" as="geometry" />
        </mxCell>
        <mxCell id="s4bk7PMrDm6jOuG2M9_s-104" value="" style="edgeStyle=elbowEdgeStyle;fontSize=12;html=1;endArrow=blockThin;endFill=1;rounded=0;" edge="1" parent="s4bk7PMrDm6jOuG2M9_s-6" target="s4bk7PMrDm6jOuG2M9_s-162" source="s4bk7PMrDm6jOuG2M9_s-101">
          <mxGeometry width="160" relative="1" as="geometry">
            <mxPoint x="377" y="315" as="sourcePoint" />
            <mxPoint x="297" y="685" as="targetPoint" />
          </mxGeometry>
        </mxCell>
        <mxCell id="s4bk7PMrDm6jOuG2M9_s-109" value="" style="points=[[0.145,0.145,0],[0.5,0,0],[0.855,0.145,0],[1,0.5,0],[0.855,0.855,0],[0.5,1,0],[0.145,0.855,0],[0,0.5,0]];shape=mxgraph.bpmn.event;html=1;verticalLabelPosition=bottom;labelBackgroundColor=#ffffff;verticalAlign=top;align=center;perimeter=ellipsePerimeter;outlineConnect=0;aspect=fixed;outline=end;symbol=terminate2;" vertex="1" parent="s4bk7PMrDm6jOuG2M9_s-6">
          <mxGeometry x="680" y="495" width="50" height="50" as="geometry" />
        </mxCell>
        <mxCell id="s4bk7PMrDm6jOuG2M9_s-106" value="" style="edgeStyle=elbowEdgeStyle;fontSize=12;html=1;endArrow=blockThin;endFill=1;rounded=0;" edge="1" parent="s4bk7PMrDm6jOuG2M9_s-6" source="s4bk7PMrDm6jOuG2M9_s-114" target="s4bk7PMrDm6jOuG2M9_s-134">
          <mxGeometry width="160" relative="1" as="geometry">
            <mxPoint x="747" y="455" as="sourcePoint" />
            <mxPoint x="660" y="455" as="targetPoint" />
          </mxGeometry>
        </mxCell>
        <mxCell id="s4bk7PMrDm6jOuG2M9_s-110" value="" style="edgeStyle=orthogonalEdgeStyle;fontSize=12;html=1;endArrow=blockThin;endFill=1;rounded=0;" edge="1" parent="s4bk7PMrDm6jOuG2M9_s-6" target="s4bk7PMrDm6jOuG2M9_s-109" source="s4bk7PMrDm6jOuG2M9_s-133">
          <mxGeometry width="160" relative="1" as="geometry">
            <mxPoint x="920" y="455" as="sourcePoint" />
            <mxPoint x="539" y="490" as="targetPoint" />
            <Array as="points" />
          </mxGeometry>
        </mxCell>
        <mxCell id="s4bk7PMrDm6jOuG2M9_s-113" value="" style="edgeStyle=elbowEdgeStyle;fontSize=12;html=1;endArrow=blockThin;endFill=1;rounded=0;" edge="1" parent="s4bk7PMrDm6jOuG2M9_s-6" source="s4bk7PMrDm6jOuG2M9_s-134" target="s4bk7PMrDm6jOuG2M9_s-133">
          <mxGeometry width="160" relative="1" as="geometry">
            <mxPoint x="780" y="455" as="sourcePoint" />
            <mxPoint x="800" y="455" as="targetPoint" />
          </mxGeometry>
        </mxCell>
        <mxCell id="s4bk7PMrDm6jOuG2M9_s-114" value="Validate data and two-way transformation" style="points=[[0.25,0,0],[0.5,0,0],[0.75,0,0],[1,0.25,0],[1,0.5,0],[1,0.75,0],[0.75,1,0],[0.5,1,0],[0.25,1,0],[0,0.75,0],[0,0.5,0],[0,0.25,0]];shape=mxgraph.bpmn.task;whiteSpace=wrap;rectStyle=rounded;size=10;html=1;container=1;expand=0;collapsible=0;taskMarker=abstract;" vertex="1" parent="s4bk7PMrDm6jOuG2M9_s-6">
          <mxGeometry x="400" y="375" width="120" height="80" as="geometry" />
        </mxCell>
        <mxCell id="s4bk7PMrDm6jOuG2M9_s-126" value="" style="points=[[0.145,0.145,0],[0.5,0,0],[0.855,0.145,0],[1,0.5,0],[0.855,0.855,0],[0.5,1,0],[0.145,0.855,0],[0,0.5,0]];shape=mxgraph.bpmn.event;html=1;verticalLabelPosition=bottom;labelBackgroundColor=#ffffff;verticalAlign=top;align=center;perimeter=ellipsePerimeter;outlineConnect=0;aspect=fixed;outline=boundInt;symbol=error;" vertex="1" parent="s4bk7PMrDm6jOuG2M9_s-114">
          <mxGeometry x="100" y="-10" width="35" height="35" as="geometry" />
        </mxCell>
        <mxCell id="s4bk7PMrDm6jOuG2M9_s-115" value="" style="edgeStyle=elbowEdgeStyle;fontSize=12;html=1;endArrow=blockThin;endFill=1;rounded=0;" edge="1" parent="s4bk7PMrDm6jOuG2M9_s-6" source="s4bk7PMrDm6jOuG2M9_s-171" target="s4bk7PMrDm6jOuG2M9_s-114">
          <mxGeometry width="160" relative="1" as="geometry">
            <mxPoint x="516" y="585" as="sourcePoint" />
            <mxPoint x="630" y="585" as="targetPoint" />
          </mxGeometry>
        </mxCell>
        <mxCell id="s4bk7PMrDm6jOuG2M9_s-121" value="Table" style="shape=datastore;html=1;labelPosition=center;verticalLabelPosition=bottom;align=center;verticalAlign=top;" vertex="1" parent="s4bk7PMrDm6jOuG2M9_s-6">
          <mxGeometry x="140" y="150" width="40" height="40" as="geometry" />
        </mxCell>
        <mxCell id="s4bk7PMrDm6jOuG2M9_s-122" value="" style="fontSize=12;html=1;endFill=0;startFill=0;endSize=6;startSize=6;dashed=1;dashPattern=1 4;endArrow=open;startArrow=none;rounded=0;" edge="1" parent="s4bk7PMrDm6jOuG2M9_s-6" source="s4bk7PMrDm6jOuG2M9_s-121" target="s4bk7PMrDm6jOuG2M9_s-90">
          <mxGeometry width="160" relative="1" as="geometry">
            <mxPoint x="712" y="480" as="sourcePoint" />
            <mxPoint x="407" y="180" as="targetPoint" />
          </mxGeometry>
        </mxCell>
        <mxCell id="s4bk7PMrDm6jOuG2M9_s-123" value="" style="fontSize=12;html=1;endFill=0;startFill=0;endSize=6;startSize=6;dashed=1;dashPattern=1 4;endArrow=open;startArrow=none;rounded=0;elbow=vertical;" edge="1" parent="s4bk7PMrDm6jOuG2M9_s-6" source="s4bk7PMrDm6jOuG2M9_s-101" target="s4bk7PMrDm6jOuG2M9_s-121">
          <mxGeometry width="160" relative="1" as="geometry">
            <mxPoint x="407" y="180" as="sourcePoint" />
            <mxPoint x="712" y="480" as="targetPoint" />
          </mxGeometry>
        </mxCell>
        <mxCell id="s4bk7PMrDm6jOuG2M9_s-127" value="" style="edgeStyle=orthogonalEdgeStyle;fontSize=12;html=1;endArrow=blockThin;endFill=1;rounded=0;" edge="1" parent="s4bk7PMrDm6jOuG2M9_s-6" source="s4bk7PMrDm6jOuG2M9_s-128" target="s4bk7PMrDm6jOuG2M9_s-109">
          <mxGeometry width="160" relative="1" as="geometry">
            <mxPoint x="866" y="455" as="sourcePoint" />
            <mxPoint x="539" y="490" as="targetPoint" />
          </mxGeometry>
        </mxCell>
        <mxCell id="s4bk7PMrDm6jOuG2M9_s-125" value="skip item if outdated" style="fontSize=12;html=1;endArrow=blockThin;endFill=1;rounded=0;elbow=vertical;edgeStyle=orthogonalEdgeStyle;" edge="1" parent="s4bk7PMrDm6jOuG2M9_s-6" source="s4bk7PMrDm6jOuG2M9_s-124" target="s4bk7PMrDm6jOuG2M9_s-167">
          <mxGeometry x="-0.0015" width="160" relative="1" as="geometry">
            <mxPoint x="886" y="315" as="sourcePoint" />
            <mxPoint x="559" y="350" as="targetPoint" />
            <Array as="points">
              <mxPoint x="378" y="240" />
              <mxPoint x="655" y="240" />
            </Array>
            <mxPoint as="offset" />
          </mxGeometry>
        </mxCell>
        <mxCell id="s4bk7PMrDm6jOuG2M9_s-128" value="Log error" style="points=[[0.25,0,0],[0.5,0,0],[0.75,0,0],[1,0.25,0],[1,0.5,0],[1,0.75,0],[0.75,1,0],[0.5,1,0],[0.25,1,0],[0,0.75,0],[0,0.5,0],[0,0.25,0]];shape=mxgraph.bpmn.task;whiteSpace=wrap;rectStyle=rounded;size=10;html=1;container=1;expand=0;collapsible=0;taskMarker=abstract;" vertex="1" parent="s4bk7PMrDm6jOuG2M9_s-6">
          <mxGeometry x="645" y="390" width="120" height="80" as="geometry" />
        </mxCell>
        <mxCell id="s4bk7PMrDm6jOuG2M9_s-129" value="" style="fontSize=12;html=1;endArrow=blockThin;endFill=1;rounded=0;elbow=vertical;" edge="1" parent="s4bk7PMrDm6jOuG2M9_s-6" source="s4bk7PMrDm6jOuG2M9_s-126" target="s4bk7PMrDm6jOuG2M9_s-128">
          <mxGeometry width="160" relative="1" as="geometry">
            <mxPoint x="866" y="455" as="sourcePoint" />
            <mxPoint x="539" y="490" as="targetPoint" />
          </mxGeometry>
        </mxCell>
        <mxCell id="s4bk7PMrDm6jOuG2M9_s-130" value="" style="shape=datastore;html=1;labelPosition=center;verticalLabelPosition=bottom;align=center;verticalAlign=top;" vertex="1" parent="s4bk7PMrDm6jOuG2M9_s-6">
          <mxGeometry x="730" y="330" width="40" height="40" as="geometry" />
        </mxCell>
        <mxCell id="s4bk7PMrDm6jOuG2M9_s-131" value="" style="fontSize=12;html=1;endFill=0;startFill=0;endSize=6;startSize=6;dashed=1;dashPattern=1 4;endArrow=open;startArrow=none;rounded=0;elbow=vertical;" edge="1" parent="s4bk7PMrDm6jOuG2M9_s-6" target="s4bk7PMrDm6jOuG2M9_s-130" source="s4bk7PMrDm6jOuG2M9_s-128">
          <mxGeometry width="160" relative="1" as="geometry">
            <mxPoint x="627" y="655" as="sourcePoint" />
            <mxPoint x="1062" y="860" as="targetPoint" />
          </mxGeometry>
        </mxCell>
        <mxCell id="s4bk7PMrDm6jOuG2M9_s-133" value="MasterData" style="points=[[0.145,0.145,0],[0.5,0,0],[0.855,0.145,0],[1,0.5,0],[0.855,0.855,0],[0.5,1,0],[0.145,0.855,0],[0,0.5,0]];shape=mxgraph.bpmn.event;html=1;verticalLabelPosition=bottom;labelBackgroundColor=#ffffff;verticalAlign=top;align=center;perimeter=ellipsePerimeter;outlineConnect=0;aspect=fixed;outline=throwing;symbol=signal;" vertex="1" parent="s4bk7PMrDm6jOuG2M9_s-6">
          <mxGeometry x="570" y="495" width="50" height="50" as="geometry" />
        </mxCell>
        <mxCell id="s4bk7PMrDm6jOuG2M9_s-134" value="Publish transformed master data item" style="points=[[0.25,0,0],[0.5,0,0],[0.75,0,0],[1,0.25,0],[1,0.5,0],[1,0.75,0],[0.75,1,0],[0.5,1,0],[0.25,1,0],[0,0.75,0],[0,0.5,0],[0,0.25,0]];shape=mxgraph.bpmn.task;whiteSpace=wrap;rectStyle=rounded;size=10;html=1;container=1;expand=0;collapsible=0;taskMarker=abstract;" vertex="1" parent="s4bk7PMrDm6jOuG2M9_s-6">
          <mxGeometry x="400" y="480" width="120" height="80" as="geometry" />
        </mxCell>
        <mxCell id="s4bk7PMrDm6jOuG2M9_s-159" value="Environment" style="shape=datastore;html=1;labelPosition=center;verticalLabelPosition=bottom;align=center;verticalAlign=top;" vertex="1" parent="s4bk7PMrDm6jOuG2M9_s-6">
          <mxGeometry x="70" y="150" width="40" height="40" as="geometry" />
        </mxCell>
        <mxCell id="s4bk7PMrDm6jOuG2M9_s-160" value="" style="fontSize=12;html=1;endFill=0;startFill=0;endSize=6;startSize=6;dashed=1;dashPattern=1 4;endArrow=open;startArrow=none;rounded=0;" edge="1" parent="s4bk7PMrDm6jOuG2M9_s-6" source="s4bk7PMrDm6jOuG2M9_s-159" target="s4bk7PMrDm6jOuG2M9_s-90">
          <mxGeometry width="160" relative="1" as="geometry">
            <mxPoint x="622" y="480" as="sourcePoint" />
            <mxPoint x="70" y="114" as="targetPoint" />
          </mxGeometry>
        </mxCell>
        <mxCell id="s4bk7PMrDm6jOuG2M9_s-161" value="MasterDataSync" style="points=[[0.145,0.145,0],[0.5,0,0],[0.855,0.145,0],[1,0.5,0],[0.855,0.855,0],[0.5,1,0],[0.145,0.855,0],[0,0.5,0]];shape=mxgraph.bpmn.event;html=1;verticalLabelPosition=bottom;labelBackgroundColor=#ffffff;verticalAlign=top;align=center;perimeter=ellipsePerimeter;outlineConnect=0;aspect=fixed;outline=throwing;symbol=signal;" vertex="1" parent="s4bk7PMrDm6jOuG2M9_s-6">
          <mxGeometry x="550" y="290" width="50" height="50" as="geometry" />
        </mxCell>
        <mxCell id="s4bk7PMrDm6jOuG2M9_s-162" value="Publish master data item" style="points=[[0.25,0,0],[0.5,0,0],[0.75,0,0],[1,0.25,0],[1,0.5,0],[1,0.75,0],[0.75,1,0],[0.5,1,0],[0.25,1,0],[0,0.75,0],[0,0.5,0],[0,0.25,0]];shape=mxgraph.bpmn.task;whiteSpace=wrap;rectStyle=rounded;size=10;html=1;container=1;expand=0;collapsible=0;taskMarker=abstract;" vertex="1" parent="s4bk7PMrDm6jOuG2M9_s-6">
          <mxGeometry x="400" y="275" width="120" height="80" as="geometry" />
        </mxCell>
        <mxCell id="s4bk7PMrDm6jOuG2M9_s-163" value="" style="edgeStyle=elbowEdgeStyle;fontSize=12;html=1;endArrow=blockThin;endFill=1;rounded=0;" edge="1" parent="s4bk7PMrDm6jOuG2M9_s-6" source="s4bk7PMrDm6jOuG2M9_s-162" target="s4bk7PMrDm6jOuG2M9_s-161">
          <mxGeometry width="160" relative="1" as="geometry">
            <mxPoint x="675" y="420" as="sourcePoint" />
            <mxPoint x="695" y="420" as="targetPoint" />
          </mxGeometry>
        </mxCell>
        <mxCell id="s4bk7PMrDm6jOuG2M9_s-167" value="" style="points=[[0.145,0.145,0],[0.5,0,0],[0.855,0.145,0],[1,0.5,0],[0.855,0.855,0],[0.5,1,0],[0.145,0.855,0],[0,0.5,0]];shape=mxgraph.bpmn.event;html=1;verticalLabelPosition=bottom;labelBackgroundColor=#ffffff;verticalAlign=top;align=center;perimeter=ellipsePerimeter;outlineConnect=0;aspect=fixed;outline=end;symbol=terminate2;" vertex="1" parent="s4bk7PMrDm6jOuG2M9_s-6">
          <mxGeometry x="630" y="290" width="50" height="50" as="geometry" />
        </mxCell>
        <mxCell id="s4bk7PMrDm6jOuG2M9_s-168" value="" style="edgeStyle=elbowEdgeStyle;fontSize=12;html=1;endArrow=blockThin;endFill=1;rounded=0;" edge="1" parent="s4bk7PMrDm6jOuG2M9_s-6" source="s4bk7PMrDm6jOuG2M9_s-161" target="s4bk7PMrDm6jOuG2M9_s-167">
          <mxGeometry width="160" relative="1" as="geometry">
            <mxPoint x="675" y="420" as="sourcePoint" />
            <mxPoint x="695" y="420" as="targetPoint" />
          </mxGeometry>
        </mxCell>
        <mxCell id="s4bk7PMrDm6jOuG2M9_s-124" value="" style="points=[[0.145,0.145,0],[0.5,0,0],[0.855,0.145,0],[1,0.5,0],[0.855,0.855,0],[0.5,1,0],[0.145,0.855,0],[0,0.5,0]];shape=mxgraph.bpmn.event;html=1;verticalLabelPosition=bottom;labelBackgroundColor=#ffffff;verticalAlign=top;align=center;perimeter=ellipsePerimeter;outlineConnect=0;aspect=fixed;outline=boundInt;symbol=error;" vertex="1" parent="s4bk7PMrDm6jOuG2M9_s-6">
          <mxGeometry x="360" y="255" width="35" height="35" as="geometry" />
        </mxCell>
        <mxCell id="s4bk7PMrDm6jOuG2M9_s-169" value="&lt;span style=&quot;color: rgb(0, 0, 0); font-family: Helvetica; font-size: 12px; font-style: normal; font-variant-ligatures: normal; font-variant-caps: normal; font-weight: 400; letter-spacing: normal; orphans: 2; text-align: center; text-indent: 0px; text-transform: none; widows: 2; word-spacing: 0px; -webkit-text-stroke-width: 0px; background-color: rgb(255, 255, 255); text-decoration-thickness: initial; text-decoration-style: initial; text-decoration-color: initial; float: none; display: inline !important;&quot;&gt;MasterDataSync&lt;/span&gt;" style="points=[[0.145,0.145,0],[0.5,0,0],[0.855,0.145,0],[1,0.5,0],[0.855,0.855,0],[0.5,1,0],[0.145,0.855,0],[0,0.5,0]];shape=mxgraph.bpmn.event;html=1;verticalLabelPosition=bottom;labelBackgroundColor=#ffffff;verticalAlign=top;align=center;perimeter=ellipsePerimeter;outlineConnect=0;aspect=fixed;outline=standard;symbol=signal;" vertex="1" parent="s4bk7PMrDm6jOuG2M9_s-6">
          <mxGeometry x="50" y="390" width="50" height="50" as="geometry" />
        </mxCell>
        <mxCell id="s4bk7PMrDm6jOuG2M9_s-170" value="" style="edgeStyle=elbowEdgeStyle;fontSize=12;html=1;endArrow=blockThin;endFill=1;rounded=0;" edge="1" parent="s4bk7PMrDm6jOuG2M9_s-6" source="s4bk7PMrDm6jOuG2M9_s-169" target="s4bk7PMrDm6jOuG2M9_s-103">
          <mxGeometry width="160" relative="1" as="geometry">
            <mxPoint x="516" y="585" as="sourcePoint" />
            <mxPoint x="630" y="585" as="targetPoint" />
          </mxGeometry>
        </mxCell>
        <mxCell id="s4bk7PMrDm6jOuG2M9_s-171" value="Transform to AciesCore schema" style="points=[[0.25,0,0],[0.5,0,0],[0.75,0,0],[1,0.25,0],[1,0.5,0],[1,0.75,0],[0.75,1,0],[0.5,1,0],[0.25,1,0],[0,0.75,0],[0,0.5,0],[0,0.25,0]];shape=mxgraph.bpmn.task;whiteSpace=wrap;rectStyle=rounded;size=10;html=1;container=1;expand=0;collapsible=0;taskMarker=abstract;" vertex="1" parent="s4bk7PMrDm6jOuG2M9_s-6">
          <mxGeometry x="264" y="375" width="120" height="80" as="geometry" />
        </mxCell>
        <mxCell id="s4bk7PMrDm6jOuG2M9_s-172" value="" style="edgeStyle=elbowEdgeStyle;fontSize=12;html=1;endArrow=blockThin;endFill=1;rounded=0;" edge="1" parent="s4bk7PMrDm6jOuG2M9_s-6" source="s4bk7PMrDm6jOuG2M9_s-103" target="s4bk7PMrDm6jOuG2M9_s-171">
          <mxGeometry width="160" relative="1" as="geometry">
            <mxPoint x="260" y="625" as="sourcePoint" />
            <mxPoint x="420" y="625" as="targetPoint" />
          </mxGeometry>
        </mxCell>
        <mxCell id="s4bk7PMrDm6jOuG2M9_s-7" value="MDM service" style="swimlane;html=1;startSize=20;horizontal=0;" vertex="1" parent="s4bk7PMrDm6jOuG2M9_s-5">
          <mxGeometry x="20" y="600" width="800" height="170" as="geometry" />
        </mxCell>
        <mxCell id="s4bk7PMrDm6jOuG2M9_s-111" value="one/MasterData" style="points=[[0.145,0.145,0],[0.5,0,0],[0.855,0.145,0],[1,0.5,0],[0.855,0.855,0],[0.5,1,0],[0.145,0.855,0],[0,0.5,0]];shape=mxgraph.bpmn.event;html=1;verticalLabelPosition=bottom;labelBackgroundColor=#ffffff;verticalAlign=top;align=center;perimeter=ellipsePerimeter;outlineConnect=0;aspect=fixed;outline=standard;symbol=signal;" vertex="1" parent="s4bk7PMrDm6jOuG2M9_s-7">
          <mxGeometry x="60" y="35" width="50" height="50" as="geometry" />
        </mxCell>
        <mxCell id="s4bk7PMrDm6jOuG2M9_s-116" value="Receive transformed master data item" style="points=[[0.25,0,0],[0.5,0,0],[0.75,0,0],[1,0.25,0],[1,0.5,0],[1,0.75,0],[0.75,1,0],[0.5,1,0],[0.25,1,0],[0,0.75,0],[0,0.5,0],[0,0.25,0]];shape=mxgraph.bpmn.task;whiteSpace=wrap;rectStyle=rounded;size=10;html=1;container=1;expand=0;collapsible=0;taskMarker=abstract;" vertex="1" parent="s4bk7PMrDm6jOuG2M9_s-7">
          <mxGeometry x="150" y="20" width="120" height="80" as="geometry" />
        </mxCell>
        <mxCell id="s4bk7PMrDm6jOuG2M9_s-117" value="" style="edgeStyle=elbowEdgeStyle;fontSize=12;html=1;endArrow=blockThin;endFill=1;rounded=0;" edge="1" parent="s4bk7PMrDm6jOuG2M9_s-7" target="s4bk7PMrDm6jOuG2M9_s-116" source="s4bk7PMrDm6jOuG2M9_s-111">
          <mxGeometry width="160" relative="1" as="geometry">
            <mxPoint x="60" y="75" as="sourcePoint" />
            <mxPoint x="120" y="445" as="targetPoint" />
          </mxGeometry>
        </mxCell>
        <mxCell id="s4bk7PMrDm6jOuG2M9_s-135" value="Upsert/delete item" style="points=[[0.25,0,0],[0.5,0,0],[0.75,0,0],[1,0.25,0],[1,0.5,0],[1,0.75,0],[0.75,1,0],[0.5,1,0],[0.25,1,0],[0,0.75,0],[0,0.5,0],[0,0.25,0]];shape=mxgraph.bpmn.task;whiteSpace=wrap;rectStyle=rounded;size=10;html=1;container=1;expand=0;collapsible=0;taskMarker=abstract;" vertex="1" parent="s4bk7PMrDm6jOuG2M9_s-7">
          <mxGeometry x="290" y="20" width="120" height="80" as="geometry" />
        </mxCell>
        <mxCell id="s4bk7PMrDm6jOuG2M9_s-136" value="" style="edgeStyle=elbowEdgeStyle;fontSize=12;html=1;endArrow=blockThin;endFill=1;rounded=0;" edge="1" parent="s4bk7PMrDm6jOuG2M9_s-7" source="s4bk7PMrDm6jOuG2M9_s-116" target="s4bk7PMrDm6jOuG2M9_s-135">
          <mxGeometry width="160" relative="1" as="geometry">
            <mxPoint x="120" y="75" as="sourcePoint" />
            <mxPoint x="180" y="445" as="targetPoint" />
          </mxGeometry>
        </mxCell>
        <mxCell id="s4bk7PMrDm6jOuG2M9_s-137" value="" style="shape=datastore;html=1;labelPosition=center;verticalLabelPosition=bottom;align=center;verticalAlign=top;" vertex="1" parent="s4bk7PMrDm6jOuG2M9_s-7">
          <mxGeometry x="410" y="115" width="40" height="40" as="geometry" />
        </mxCell>
        <mxCell id="s4bk7PMrDm6jOuG2M9_s-138" value="" style="fontSize=12;html=1;endFill=0;startFill=0;endSize=6;startSize=6;dashed=1;dashPattern=1 4;endArrow=open;startArrow=none;rounded=0;elbow=vertical;" edge="1" parent="s4bk7PMrDm6jOuG2M9_s-7" target="s4bk7PMrDm6jOuG2M9_s-137" source="s4bk7PMrDm6jOuG2M9_s-135">
          <mxGeometry width="160" relative="1" as="geometry">
            <mxPoint x="300" y="92.14285714285711" as="sourcePoint" />
            <mxPoint x="410" y="10" as="targetPoint" />
          </mxGeometry>
        </mxCell>
        <mxCell id="s4bk7PMrDm6jOuG2M9_s-139" value="" style="points=[[0.145,0.145,0],[0.5,0,0],[0.855,0.145,0],[1,0.5,0],[0.855,0.855,0],[0.5,1,0],[0.145,0.855,0],[0,0.5,0]];shape=mxgraph.bpmn.event;html=1;verticalLabelPosition=bottom;labelBackgroundColor=#ffffff;verticalAlign=top;align=center;perimeter=ellipsePerimeter;outlineConnect=0;aspect=fixed;outline=end;symbol=terminate2;" vertex="1" parent="s4bk7PMrDm6jOuG2M9_s-7">
          <mxGeometry x="640" y="35" width="50" height="50" as="geometry" />
        </mxCell>
        <mxCell id="s4bk7PMrDm6jOuG2M9_s-140" value="" style="edgeStyle=orthogonalEdgeStyle;fontSize=12;html=1;endArrow=blockThin;endFill=1;rounded=0;" edge="1" parent="s4bk7PMrDm6jOuG2M9_s-7" source="s4bk7PMrDm6jOuG2M9_s-141" target="s4bk7PMrDm6jOuG2M9_s-139">
          <mxGeometry width="160" relative="1" as="geometry">
            <mxPoint x="690" y="60" as="sourcePoint" />
            <mxPoint x="309" y="95" as="targetPoint" />
            <Array as="points" />
          </mxGeometry>
        </mxCell>
        <mxCell id="s4bk7PMrDm6jOuG2M9_s-141" value="Item" style="points=[[0.145,0.145,0],[0.5,0,0],[0.855,0.145,0],[1,0.5,0],[0.855,0.855,0],[0.5,1,0],[0.145,0.855,0],[0,0.5,0]];shape=mxgraph.bpmn.event;html=1;verticalLabelPosition=bottom;labelBackgroundColor=#ffffff;verticalAlign=top;align=center;perimeter=ellipsePerimeter;outlineConnect=0;aspect=fixed;outline=throwing;symbol=signal;" vertex="1" parent="s4bk7PMrDm6jOuG2M9_s-7">
          <mxGeometry x="570" y="35" width="50" height="50" as="geometry" />
        </mxCell>
        <mxCell id="s4bk7PMrDm6jOuG2M9_s-142" value="Publish master data" style="points=[[0.25,0,0],[0.5,0,0],[0.75,0,0],[1,0.25,0],[1,0.5,0],[1,0.75,0],[0.75,1,0],[0.5,1,0],[0.25,1,0],[0,0.75,0],[0,0.5,0],[0,0.25,0]];shape=mxgraph.bpmn.task;whiteSpace=wrap;rectStyle=rounded;size=10;html=1;container=1;expand=0;collapsible=0;taskMarker=abstract;" vertex="1" parent="s4bk7PMrDm6jOuG2M9_s-7">
          <mxGeometry x="430" y="20" width="120" height="80" as="geometry" />
        </mxCell>
        <mxCell id="s4bk7PMrDm6jOuG2M9_s-144" value="" style="edgeStyle=orthogonalEdgeStyle;fontSize=12;html=1;endArrow=blockThin;endFill=1;rounded=0;" edge="1" parent="s4bk7PMrDm6jOuG2M9_s-7" source="s4bk7PMrDm6jOuG2M9_s-142" target="s4bk7PMrDm6jOuG2M9_s-141">
          <mxGeometry width="160" relative="1" as="geometry">
            <mxPoint x="640" y="70" as="sourcePoint" />
            <mxPoint x="660" y="70" as="targetPoint" />
            <Array as="points" />
          </mxGeometry>
        </mxCell>
        <mxCell id="s4bk7PMrDm6jOuG2M9_s-145" value="" style="edgeStyle=orthogonalEdgeStyle;fontSize=12;html=1;endArrow=blockThin;endFill=1;rounded=0;" edge="1" parent="s4bk7PMrDm6jOuG2M9_s-7" source="s4bk7PMrDm6jOuG2M9_s-135" target="s4bk7PMrDm6jOuG2M9_s-142">
          <mxGeometry width="160" relative="1" as="geometry">
            <mxPoint x="550" y="70" as="sourcePoint" />
            <mxPoint x="590" y="70" as="targetPoint" />
            <Array as="points" />
          </mxGeometry>
        </mxCell>
        <mxCell id="s4bk7PMrDm6jOuG2M9_s-8" value="BOM service" style="swimlane;html=1;startSize=20;horizontal=0;" vertex="1" parent="s4bk7PMrDm6jOuG2M9_s-5">
          <mxGeometry x="20" y="770" width="800" height="180" as="geometry" />
        </mxCell>
        <mxCell id="s4bk7PMrDm6jOuG2M9_s-118" value="&lt;span style=&quot;color: rgb(0, 0, 0); font-family: Helvetica; font-size: 12px; font-style: normal; font-variant-ligatures: normal; font-variant-caps: normal; font-weight: 400; letter-spacing: normal; orphans: 2; text-align: center; text-indent: 0px; text-transform: none; widows: 2; word-spacing: 0px; -webkit-text-stroke-width: 0px; background-color: rgb(255, 255, 255); text-decoration-thickness: initial; text-decoration-style: initial; text-decoration-color: initial; float: none; display: inline !important;&quot;&gt;one/MasterDataSync&lt;/span&gt;" style="points=[[0.145,0.145,0],[0.5,0,0],[0.855,0.145,0],[1,0.5,0],[0.855,0.855,0],[0.5,1,0],[0.145,0.855,0],[0,0.5,0]];shape=mxgraph.bpmn.event;html=1;verticalLabelPosition=bottom;labelBackgroundColor=#ffffff;verticalAlign=top;align=center;perimeter=ellipsePerimeter;outlineConnect=0;aspect=fixed;outline=standard;symbol=signal;" vertex="1" parent="s4bk7PMrDm6jOuG2M9_s-8">
          <mxGeometry x="60" y="35" width="50" height="50" as="geometry" />
        </mxCell>
        <mxCell id="s4bk7PMrDm6jOuG2M9_s-119" value="Receive non-transformed master data item" style="points=[[0.25,0,0],[0.5,0,0],[0.75,0,0],[1,0.25,0],[1,0.5,0],[1,0.75,0],[0.75,1,0],[0.5,1,0],[0.25,1,0],[0,0.75,0],[0,0.5,0],[0,0.25,0]];shape=mxgraph.bpmn.task;whiteSpace=wrap;rectStyle=rounded;size=10;html=1;container=1;expand=0;collapsible=0;taskMarker=abstract;" vertex="1" parent="s4bk7PMrDm6jOuG2M9_s-8">
          <mxGeometry x="150" y="20" width="120" height="80" as="geometry" />
        </mxCell>
        <mxCell id="s4bk7PMrDm6jOuG2M9_s-120" value="" style="edgeStyle=elbowEdgeStyle;fontSize=12;html=1;endArrow=blockThin;endFill=1;rounded=0;" edge="1" parent="s4bk7PMrDm6jOuG2M9_s-8" source="s4bk7PMrDm6jOuG2M9_s-118" target="s4bk7PMrDm6jOuG2M9_s-119">
          <mxGeometry width="160" relative="1" as="geometry">
            <mxPoint x="100" y="75" as="sourcePoint" />
            <mxPoint x="160" y="445" as="targetPoint" />
          </mxGeometry>
        </mxCell>
        <mxCell id="s4bk7PMrDm6jOuG2M9_s-146" value="Upsert/delete item" style="points=[[0.25,0,0],[0.5,0,0],[0.75,0,0],[1,0.25,0],[1,0.5,0],[1,0.75,0],[0.75,1,0],[0.5,1,0],[0.25,1,0],[0,0.75,0],[0,0.5,0],[0,0.25,0]];shape=mxgraph.bpmn.task;whiteSpace=wrap;rectStyle=rounded;size=10;html=1;container=1;expand=0;collapsible=0;taskMarker=abstract;" vertex="1" parent="s4bk7PMrDm6jOuG2M9_s-8">
          <mxGeometry x="290" y="20" width="120" height="80" as="geometry" />
        </mxCell>
        <mxCell id="s4bk7PMrDm6jOuG2M9_s-147" value="" style="edgeStyle=elbowEdgeStyle;fontSize=12;html=1;endArrow=blockThin;endFill=1;rounded=0;" edge="1" parent="s4bk7PMrDm6jOuG2M9_s-8" target="s4bk7PMrDm6jOuG2M9_s-146" source="s4bk7PMrDm6jOuG2M9_s-119">
          <mxGeometry width="160" relative="1" as="geometry">
            <mxPoint x="250" y="60" as="sourcePoint" />
            <mxPoint x="160" y="445" as="targetPoint" />
          </mxGeometry>
        </mxCell>
        <mxCell id="s4bk7PMrDm6jOuG2M9_s-148" value="" style="shape=datastore;html=1;labelPosition=center;verticalLabelPosition=bottom;align=center;verticalAlign=top;" vertex="1" parent="s4bk7PMrDm6jOuG2M9_s-8">
          <mxGeometry x="330" y="115" width="40" height="40" as="geometry" />
        </mxCell>
        <mxCell id="s4bk7PMrDm6jOuG2M9_s-149" value="" style="fontSize=12;html=1;endFill=0;startFill=0;endSize=6;startSize=6;dashed=1;dashPattern=1 4;endArrow=open;startArrow=none;rounded=0;elbow=vertical;" edge="1" parent="s4bk7PMrDm6jOuG2M9_s-8" source="s4bk7PMrDm6jOuG2M9_s-146" target="s4bk7PMrDm6jOuG2M9_s-148">
          <mxGeometry width="160" relative="1" as="geometry">
            <mxPoint x="390" y="60" as="sourcePoint" />
            <mxPoint x="662" y="380" as="targetPoint" />
          </mxGeometry>
        </mxCell>
        <mxCell id="s4bk7PMrDm6jOuG2M9_s-150" value="" style="points=[[0.145,0.145,0],[0.5,0,0],[0.855,0.145,0],[1,0.5,0],[0.855,0.855,0],[0.5,1,0],[0.145,0.855,0],[0,0.5,0]];shape=mxgraph.bpmn.event;html=1;verticalLabelPosition=bottom;labelBackgroundColor=#ffffff;verticalAlign=top;align=center;perimeter=ellipsePerimeter;outlineConnect=0;aspect=fixed;outline=end;symbol=terminate2;" vertex="1" parent="s4bk7PMrDm6jOuG2M9_s-8">
          <mxGeometry x="430" y="35" width="50" height="50" as="geometry" />
        </mxCell>
        <mxCell id="s4bk7PMrDm6jOuG2M9_s-151" value="" style="edgeStyle=orthogonalEdgeStyle;fontSize=12;html=1;endArrow=blockThin;endFill=1;rounded=0;" edge="1" parent="s4bk7PMrDm6jOuG2M9_s-8" source="s4bk7PMrDm6jOuG2M9_s-146" target="s4bk7PMrDm6jOuG2M9_s-150">
          <mxGeometry width="160" relative="1" as="geometry">
            <mxPoint x="600" y="60" as="sourcePoint" />
            <mxPoint x="289" y="95" as="targetPoint" />
            <Array as="points" />
          </mxGeometry>
        </mxCell>
        <mxCell id="s4bk7PMrDm6jOuG2M9_s-65" value="" style="dashed=1;dashPattern=8 4;endArrow=blockThin;endFill=1;startArrow=oval;startFill=0;endSize=6;startSize=4;html=1;rounded=0;" edge="1" parent="1" source="s4bk7PMrDm6jOuG2M9_s-90" target="s4bk7PMrDm6jOuG2M9_s-100">
          <mxGeometry width="160" relative="1" as="geometry">
            <mxPoint x="180" y="324" as="sourcePoint" />
            <mxPoint x="620" y="370" as="targetPoint" />
          </mxGeometry>
        </mxCell>
        <mxCell id="s4bk7PMrDm6jOuG2M9_s-69" value="" style="dashed=1;dashPattern=8 4;endArrow=blockThin;endFill=1;startArrow=oval;startFill=0;endSize=6;startSize=4;html=1;rounded=0;" edge="1" parent="1" source="s4bk7PMrDm6jOuG2M9_s-26" target="s4bk7PMrDm6jOuG2M9_s-70">
          <mxGeometry width="160" relative="1" as="geometry">
            <mxPoint x="410" y="451" as="sourcePoint" />
            <mxPoint x="410" y="277" as="targetPoint" />
          </mxGeometry>
        </mxCell>
      </root>
    </mxGraphModel>
  </diagram>
</mxfile>
